Coordinates
version=1
nRows=24
nColumns=24
inDegrees=yes

Units are S.I. units (second, meters, Newtons, ...)
Angles are in degrees.

endheader
time	pelvis_tilt	pelvis_list	pelvis_rotation	pelvis_tx	pelvis_ty	pelvis_tz	hip_flexion_r	hip_adduction_r	hip_rotation_r	knee_angle_r	ankle_angle_r	subtalar_angle_r	mtp_angle_r	hip_flexion_l	hip_adduction_l	hip_rotation_l	knee_angle_l	ankle_angle_l	subtalar_angle_l	mtp_angle_l	lumbar_extension	lumbar_bending	lumbar_rotation
      2.13000000	     -5.87972288	      2.46431770	    359.75245945	      0.15623660	      1.38948193	     -0.99124689	     15.63946866	      0.62619541	      2.34422311	    -15.44000331	      0.29552848	     -4.06919687	      3.16191802	     19.44242010	      4.31498789	      3.01540443	    -52.69425180	     -0.99905744	     10.47105309	     38.65733114	     -7.43577026	      5.70346248	     10.45186360
      2.13500000	     -5.91388751	      2.60346594	    359.74171955	      0.16072511	      1.39004598	     -0.99090078	     15.32180063	      0.49736292	      2.40676161	    -15.31196596	      0.48175734	     -4.04431338	      3.13817993	     19.95708286	      4.42761908	      2.87056045	    -52.27512913	     -0.68987328	     10.32201847	     38.21051818	     -7.41788241	      5.54375100	     10.51996763
      2.14000000	     -5.95705311	      2.72452784	    359.74118487	      0.16522360	      1.39057871	     -0.99058363	     15.01384483	      0.38268203	      2.43650542	    -15.18592812	      0.65291708	     -4.02408843	      3.09583743	     20.46604211	      4.52415619	      2.73825262	    -51.80778464	     -0.36714229	     10.16208433	     37.71101783	     -7.38654886	      5.40175216	     10.59400452
      2.14500000	     -5.98032765	      2.86958142	    359.73774889	      0.16970493	      1.39110467	     -0.99020742	     14.68543406	      0.24904831	      2.50535046	    -15.05985624	      0.83739130	     -4.05855682	      3.09716309	     20.93068987	      4.63602630	      2.59491724	    -51.25875050	     -0.13506486	      9.96000972	     37.47181843	     -7.38712903	      5.23210253	     10.59319253
      2.15000000	     -5.98547066	      3.00181945	    359.73211919	      0.17419484	      1.39163874	     -0.98988721	     14.32874494	      0.12224249	      2.57297826	    -14.91697256	      1.01755397	     -4.04005059	      3.09162044	     21.35256738	      4.74456398	      2.46815241	    -50.65384402	      0.07215340	      9.66948521	     37.07305248	     -7.40055721	      5.07974678	     10.65941197
      2.15500000	     -5.99371190	      3.11820445	    359.73719703	      0.17869715	      1.39215083	     -0.98957574	     13.96808250	      0.00860554	      2.62987406	    -14.76236478	      1.18805520	     -4.00997701	      3.07482711	     21.75942107	      4.83855902	      2.36290003	    -49.99920844	      0.28240406	      9.42021981	     36.64742842	     -7.40682078	      4.94643564	     10.70898467
      2.16000000	     -5.97648881	      3.22047661	    359.74512208	      0.18318075	      1.39264207	     -0.98925139	     13.58254713	     -0.09217651	      2.63799084	    -14.61108750	      1.35382722	     -3.96909833	      3.05133177	     22.12273920	      4.91184892	      2.25273992	    -49.30081886	      0.51456126	      9.17428097	     36.19358305	     -7.44638695	      4.81758138	     10.76306251
      2.16500000	     -6.00145175	      3.34423013	    359.74466416	      0.18765113	      1.39305602	     -0.98886240	     13.25270835	     -0.20673348	      2.68548921	    -14.47369075	      1.54055988	     -3.98388068	      3.06427100	     22.51577639	      4.99592272	      2.12962945	    -48.54027143	      0.65129069	      8.92466543	     35.93182796	     -7.44652877	      4.66953853	     10.75176630
      2.17000000	     -5.96169060	      3.44011614	    359.75659328	      0.19213062	      1.39352067	     -0.98852810	     12.83725928	     -0.30366411	      2.68196944	    -14.31107127	      1.73056652	     -3.90527711	      3.06510436	     22.80994655	      5.06738613	      2.05284517	    -47.72658298	      0.82286641	      8.65277116	     35.46768845	     -7.51104806	      4.53674181	     10.80912302
      2.17500000	     -5.99746670	      3.54845630	    359.74184105	      0.19658065	      1.39385145	     -0.98809225	     12.52762812	     -0.39754421	      2.71633319	    -14.18239640	      1.89856691	     -3.90389470	      3.09392350	     23.17684677	      5.12255331	      1.92476467	    -46.86570339	      0.91733276	      8.37725248	     35.24531987	     -7.50437460	      4.40343484	     10.79346147
      2.18000000	     -5.97435048	      3.63727453	    359.73816751	      0.20103128	      1.39422627	     -0.98771867	     12.13881430	     -0.48384997	      2.70104935	    -14.02463706	      2.07536335	     -3.79972214	      3.13915118	     23.45355456	      5.17540454	      1.84226329	    -45.95218333	      1.01663950	      8.05392577	     34.89884298	     -7.55992942	      4.27796758	     10.84308841
      2.18500000	     -5.98526524	      3.73589886	    359.72398977	      0.20545994	      1.39451982	     -0.98727249	     11.79991098	     -0.57053265	      2.71604088	    -13.88673661	      2.26812303	     -3.74182393	      3.18958144	     23.75070898	      5.22365999	      1.74755409	    -44.98859979	      1.06872264	      7.78779060	     34.63366163	     -7.58570344	      4.14148467	     10.84077634
      2.19000000	     -5.98861468	      3.82350574	    359.70957060	      0.20987062	      1.39477316	     -0.98683587	     11.45797324	     -0.64831041	      2.69140702	    -13.75506712	      2.46151744	     -3.65362720	      3.25535383	     24.02205727	      5.26012902	      1.66050982	    -43.98183719	      1.12195283	      7.52049813	     34.36791708	     -7.62081189	      4.01163350	     10.86094844
      2.19500000	     -6.00131969	      3.91069820	    359.69277028	      0.21427208	      1.39497695	     -0.98638898	     11.13205119	     -0.72464137	      2.66331422	    -13.63184889	      2.65925047	     -3.56241134	      3.32932478	     24.28341300	      5.29416492	      1.58225642	    -42.92660880	      1.15592398	      7.26949335	     34.12199930	     -7.64805646	      3.88103272	     10.87534405
      2.20000000	     -6.03012121	      4.00510006	    359.66964817	      0.21864812	      1.39511836	     -0.98590035	     10.83852967	     -0.80279485	      2.62565809	    -13.53216185	      2.86734787	     -3.49991292	      3.40266088	     24.54373571	      5.32466386	      1.48938703	    -41.82218424	      1.15998294	      7.05222992	     33.91789099	     -7.66468790	      3.73769158	     10.87305599
      2.20500000	     -6.04235845	      4.07883031	    359.64693237	      0.22302557	      1.39525275	     -0.98549679	     10.52182647	     -0.86879119	      2.58256445	    -13.42049298	      3.06684735	     -3.35486835	      3.49918230	     24.76077664	      5.34998957	      1.44257798	    -40.66781379	      1.16198037	      6.77949981	     33.68190739	     -7.69582876	      3.62310069	     10.91439350
      2.21000000	     -6.06543327	      4.15978960	    359.61751295	      0.22737080	      1.39531709	     -0.98504376	     10.23273392	     -0.93345831	      2.55892204	    -13.33530452	      3.28252052	     -3.26275154	      3.58758445	     24.97201511	      5.37156424	      1.38597291	    -39.46730288	      1.12721148	      6.56267820	     33.49180539	     -7.72647516	      3.49599992	     10.92448311
      2.21500000	     -6.09135858	      4.23800264	    359.58917639	      0.23172043	      1.39534349	     -0.98462631	      9.95199040	     -0.99806993	      2.51695576	    -13.25990669	      3.49405538	     -3.16381031	      3.67875729	     25.16179079	      5.39404392	      1.34341260	    -38.21480512	      1.08415155	      6.33311031	     33.31455716	     -7.75020391	      3.37240953	     10.95276811
      2.22000000	     -6.12120175	      4.32109805	    359.55376323	      0.23605340	      1.39533155	     -0.98421419	      9.68649881	     -1.06610967	      2.48646455	    -13.20158191	      3.71342770	     -3.06903354	      3.76686099	     25.33096434	      5.41829541	      1.30296523	    -36.90794320	      1.00892383	      6.10853477	     33.15978065	     -7.77470703	      3.24591614	     10.98262860
      2.22500000	     -6.17054616	      4.40322072	    359.51332596	      0.24038148	      1.39525175	     -0.98380020	      9.45246886	     -1.12835270	      2.47890913	    -13.16295370	      3.94769894	     -3.02233684	      3.84529502	     25.50096028	      5.43516394	      1.25982447	    -35.55636880	      0.89716607	      5.91752298	     33.01931231	     -7.77979850	      3.12144080	     10.99438196
      2.23000000	     -6.20588132	      4.48441157	    359.47045083	      0.24470809	      1.39517189	     -0.98344699	      9.20601459	     -1.19527621	      2.47706621	    -13.12685721	      4.15736347	     -2.93137807	      3.92390955	     25.62164551	      5.46267970	      1.25629481	    -34.13848944	      0.77982291	      5.67134464	     32.88849807	     -7.80080266	      2.99953064	     11.04747931
      2.23500000	     -6.25665462	      4.56277233	    359.42559375	      0.24902051	      1.39502954	     -0.98309517	      8.98741552	     -1.25563713	      2.48358657	    -13.11073879	      4.38006731	     -2.87797122	      3.99189211	     25.73877445	      5.48053137	      1.24637962	    -32.67779893	      0.63156866	      5.45297330	     32.77681707	     -7.80777897	      2.87948925	     11.09055861
      2.24000000	     -6.31106821	      4.63733130	    359.37533582	      0.25331240	      1.39483211	     -0.98275622	      8.78379806	     -1.30923617	      2.50393834	    -13.11330292	      4.62466958	     -2.85927321	      4.05417172	     25.83900077	      5.48866959	      1.22829345	    -31.17589633	      0.44994672	      5.25381277	     32.65892648	     -7.81586771	      2.77080160	     11.13524378
      2.24500000	     -6.35044834	      4.71473762	    359.32532132	      0.25761374	      1.39464411	     -0.98246140	      8.56474392	     -1.37075600	      2.52714065	    -13.11712325	      4.82885168	     -2.81010697	      4.10310827	     25.88446969	      5.50844045	      1.24889043	    -29.60271175	      0.26158215	      5.01177736	     32.55932966	     -7.83869644	      2.65018818	     11.20796758
